<svg width="14" height="13" viewBox="0 0 14 13" fill="none" xmlns="http://www.w3.org/2000/svg">
<path d="M9.44854 0.00226149C8.58064 0.00160575 7.73079 0.244537 7 0.702184C6.31276 0.271805 5.51967 0.0301743 4.70397 0.00264703C3.88827 -0.0248802 3.08003 0.162711 2.36406 0.545735C1.64808 0.92876 1.05078 1.4931 0.634821 2.17953C0.218862 2.86595 -0.000414574 3.64917 5.88433e-07 4.44698C5.88433e-07 9.57879 7 13 7 13C7 13 14 9.57879 14 4.44698C14 3.86293 13.8822 3.28461 13.6535 2.74507C13.4247 2.20554 13.0893 1.71536 12.6666 1.30258C12.2439 0.88979 11.7422 0.562484 11.19 0.339367C10.6378 0.116251 10.046 0.00169954 9.44854 0.00226149Z" fill="#F13131" fill-opacity="0.3"/>
</svg>
