<svg width="14" height="13" viewBox="0 0 14 13" fill="none" xmlns="http://www.w3.org/2000/svg">
<path d="M6.73462 1.12595L7 1.29214L7.26538 1.12595C7.91596 0.71853 8.6736 0.501676 9.44816 0.502262L9.44901 0.502261C9.98237 0.50176 10.5103 0.604028 11.0027 0.802953C11.495 1.00187 11.9416 1.29339 12.3173 1.6603C12.693 2.02719 12.9904 2.46223 13.1931 2.94027C13.3958 3.41828 13.5 3.93023 13.5 4.44698C13.5 6.7849 11.8967 8.79542 10.175 10.2679C9.32558 10.9945 8.4737 11.5672 7.83308 11.9586C7.51331 12.1539 7.24753 12.3033 7.06283 12.4032C7.0407 12.4152 7.01974 12.4265 7 12.437C6.98026 12.4265 6.9593 12.4152 6.93717 12.4032C6.75247 12.3033 6.48669 12.1539 6.16692 11.9586C5.5263 11.5672 4.67442 10.9945 3.82499 10.2679C2.10335 8.79542 0.500001 6.7849 0.500001 4.44698L0.500001 4.44672C0.499633 3.74094 0.693571 3.04736 1.06244 2.43865C1.43136 1.82984 1.96203 1.32786 2.59991 0.986612C3.23787 0.645322 3.95888 0.477787 4.68711 0.502363C5.41533 0.526938 6.12259 0.742665 6.73462 1.12595Z" stroke="#F13131" stroke-opacity="0.3"/>
</svg>
